<svg width="150" height="44" viewBox="0 0 150 44" fill="none" xmlns="http://www.w3.org/2000/svg">
<path d="M5.34239 42.4527H5.33103L5.31968 42.4532C3.3207 42.5441 1.6464 40.9061 1.54749 38.8556V38.7626V5.24136C1.54749 3.21292 3.20919 1.55121 5.23763 1.55121H5.34239H144.56C146.605 1.55121 148.355 3.22876 148.355 5.24136V38.7509C148.257 40.7887 146.588 42.4527 144.455 42.4527H5.34239Z" fill="black" stroke="white"/>
<path d="M33.4164 21.7925C33.4164 18.2308 36.3495 16.5548 36.4543 16.45C35.302 14.6692 33.3117 13.6217 31.2166 13.6217C29.1215 13.4122 26.9217 14.8787 25.8741 14.8787C24.7218 14.8787 23.0458 13.6217 21.1602 13.6217C18.7509 13.6217 16.5511 14.9835 15.3988 17.1833C12.8847 21.4782 14.7702 27.8682 17.1796 31.3251C18.3319 33.0011 19.7984 34.8867 21.5792 34.8867C23.36 34.7819 24.0933 33.7344 26.1884 33.7344C28.3882 33.7344 29.0167 34.8867 30.7976 34.7819C32.6831 34.7819 33.9402 33.1059 35.0925 31.3251C36.4543 29.3347 37.0828 27.4492 37.0828 27.3444C37.0828 27.3444 33.4164 25.9826 33.4164 21.7925ZM29.8548 11.3171C30.9023 10.06 31.4261 8.48874 31.3213 6.81268C29.9595 6.91744 28.1787 7.75547 27.1312 8.90776C26.1884 9.9553 25.4551 11.6314 25.6646 13.2027C27.2359 13.4122 28.8072 12.4694 29.8548 11.3171Z" fill="white"/>
<path d="M59.3954 34.6769H56.8813L55.5195 30.382H50.7008L49.339 34.6769H46.9297L51.7484 20.0114H54.6815L59.3954 34.6769ZM55.1005 28.4965L53.8434 24.7253L53.1102 22.0017L52.3769 24.7253L51.1198 28.4965C51.1198 28.4965 55.1005 28.4965 55.1005 28.4965ZM71.6516 29.2297C71.7563 30.801 71.2326 32.3723 70.185 33.5246C69.347 34.4674 68.1947 34.8864 66.9377 34.8864C65.5759 34.8864 64.5283 34.3627 63.8998 33.4199V38.9718H61.4905V27.5537L61.3857 24.0968H63.4808L63.5855 25.7729C64.3188 24.5158 65.6806 23.7825 67.1472 23.8873C68.4042 23.8873 69.4517 24.4111 70.2898 25.3538C71.2326 26.4014 71.7563 27.7632 71.6516 29.2297ZM69.2422 29.3345C69.2422 28.2869 69.0327 27.4489 68.509 26.8204C67.9852 26.0871 67.3567 25.7729 66.4139 25.7729C65.7854 25.7729 65.2616 25.9824 64.8426 26.2966C64.3188 26.7156 64.1093 27.1347 63.8998 27.7632L63.795 28.4965V30.2773C63.795 31.0105 64.0045 31.6391 64.5283 32.2676C65.0521 32.7914 65.5759 33.1056 66.4139 33.1056C67.2519 33.1056 67.9852 32.7914 68.509 32.0581C69.0327 31.2201 69.2422 30.2773 69.2422 29.3345ZM83.803 29.2297C83.9078 30.801 83.384 32.3723 82.3364 33.5246C81.4984 34.4674 80.3461 34.8864 79.0891 34.8864C77.7273 34.8864 76.6797 34.3627 76.0512 33.4199V38.9718H73.6419V27.5537L73.5371 24.0968H75.6322L75.8417 25.7729C76.575 24.5158 77.9368 23.7825 79.4033 23.8873C80.6604 23.8873 81.7079 24.4111 82.546 25.3538C83.384 26.2966 83.803 27.6584 83.803 29.2297ZM81.3937 29.3345C81.3937 28.2869 81.1842 27.4489 80.6604 26.8204C80.1366 26.0871 79.5081 25.7729 78.5653 25.7729C77.9368 25.7729 77.413 25.9824 76.994 26.2966C76.4702 26.7156 76.2607 27.1347 76.0512 27.7632L75.9465 28.4965V30.2773C75.9465 31.0105 76.156 31.6391 76.6797 32.2676C77.2035 32.7914 77.7273 33.1056 78.5653 33.1056C79.4033 33.1056 80.1366 32.7914 80.6604 32.0581C81.1842 31.3248 81.3937 30.4868 81.3937 29.3345ZM97.5257 30.4868C97.5257 31.7438 97.1067 32.7914 96.2687 33.5246C95.3259 34.3627 93.9641 34.7817 92.2881 34.7817C90.7167 34.7817 89.4597 34.4674 88.5169 33.8389L89.0407 31.8486C90.0882 32.4771 91.2405 32.7914 92.4976 32.7914C93.3356 32.7914 94.0689 32.5819 94.5926 32.1628C95.1164 31.7438 95.3259 31.2201 95.3259 30.5915C95.3259 29.963 95.1164 29.544 94.6974 29.125C94.2784 28.706 93.6499 28.3917 92.7071 27.9727C90.0882 27.0299 88.8312 25.6681 88.8312 23.7825C88.8312 22.6302 89.2502 21.5827 90.193 20.8494C91.1358 20.1162 92.2881 19.6971 93.7546 19.6971C95.1164 19.6971 96.1639 19.9067 97.1067 20.4304L96.4782 22.316C95.6402 21.897 94.5926 21.6875 93.6499 21.6875C92.8118 21.6875 92.1833 21.897 91.6595 22.316C91.2405 22.6302 91.031 23.154 91.031 23.6778C91.031 24.3063 91.2405 24.7253 91.6595 25.1443L93.7546 26.2966C94.8021 26.7156 95.7449 27.2394 96.583 28.0774C97.2115 28.706 97.5257 29.544 97.5257 30.4868ZM105.278 25.8776H102.659V31.0105C102.659 32.2676 103.078 33.0009 104.02 33.0009L105.068 32.8961L105.173 34.6769C104.754 34.8864 104.125 34.8864 103.287 34.8864C102.344 34.8864 101.611 34.5722 101.087 34.0484C100.564 33.5246 100.249 32.5819 100.249 31.2201V25.8776H98.8875V24.0968H100.459V22.2112L102.763 21.478V24.0968H105.382V25.8776H105.278ZM117.01 29.2297C117.01 30.801 116.591 32.1628 115.648 33.2104C114.705 34.2579 113.344 34.7817 111.772 34.7817C110.201 34.7817 108.944 34.2579 108.001 33.2104C107.058 32.1628 106.639 30.9058 106.639 29.3345C106.639 27.6584 107.163 26.4014 108.106 25.3538C109.049 24.3063 110.306 23.7825 111.982 23.7825C113.553 23.7825 114.81 24.3063 115.753 25.3538C116.591 26.4014 117.01 27.6584 117.01 29.2297ZM114.601 29.3345C114.601 28.3917 114.391 27.5537 113.972 26.8204C113.448 25.9824 112.82 25.5634 111.877 25.5634C110.934 25.5634 110.201 25.9824 109.677 26.8204C109.258 27.5537 109.049 28.3917 109.049 29.3345C109.049 30.2773 109.258 31.1153 109.677 31.8486C110.201 32.6866 110.934 33.1056 111.772 33.1056C112.715 33.1056 113.344 32.6866 113.867 31.8486C114.391 31.2201 114.601 30.2773 114.601 29.3345ZM124.762 26.1919L124.028 26.0871C123.295 26.0871 122.562 26.4014 122.143 27.0299C121.724 27.5537 121.514 28.2869 121.514 29.125V34.6769H119.105V27.4489L119 24.0968H121.095L121.2 26.0871H121.305C121.514 25.4586 121.933 24.8301 122.457 24.4111C122.981 23.992 123.505 23.8873 124.133 23.8873H124.762C124.762 23.8873 124.762 26.1919 124.762 26.1919ZM135.342 28.9155L135.237 29.963H128.114C128.114 30.9058 128.428 31.7438 129.161 32.3723C129.79 32.8961 130.523 33.1056 131.466 33.1056C132.513 33.1056 133.456 32.8961 134.294 32.5819L134.713 34.2579C133.561 34.6769 132.409 34.8864 131.152 34.8864C129.685 34.9912 128.323 34.4674 127.276 33.4199C126.333 32.3723 125.809 31.0105 125.914 29.544C125.914 27.9727 126.333 26.6109 127.276 25.5634C128.114 24.4111 129.476 23.8873 130.942 23.8873C132.513 23.8873 133.666 24.4111 134.399 25.5634C135.028 26.4014 135.342 27.5537 135.342 28.9155ZM133.037 28.2869C133.037 27.6584 132.933 27.0299 132.618 26.5061C132.199 25.8776 131.466 25.5634 130.733 25.5634C129.999 25.5634 129.371 25.8776 128.847 26.5061C128.428 27.0299 128.219 27.6584 128.114 28.2869H133.037Z" fill="white"/>
<path d="M54.3672 11.0026C54.3672 12.2596 53.9482 13.3072 53.2149 13.9357C52.4816 14.5642 51.4341 14.8785 50.0723 14.8785L48.3962 14.7737V7.65046L50.3866 7.54571C51.6436 7.54571 52.5864 7.85997 53.2149 8.38374C54.0529 9.01226 54.3672 9.85029 54.3672 11.0026ZM53.1102 11.0026C53.1102 10.1645 52.9006 9.53603 52.4816 9.11701C52.0626 8.698 51.3293 8.48849 50.4913 8.48849L49.5485 8.59324V13.9357H50.3866C51.2246 13.9357 51.9579 13.7262 52.4816 13.2024C52.9006 12.6786 53.1102 11.9454 53.1102 11.0026ZM60.8619 12.1549C60.8619 12.9929 60.6524 13.6214 60.1287 14.1452C59.6049 14.669 58.9764 14.9832 58.2431 14.9832C57.5098 14.9832 56.8813 14.7737 56.4623 14.2499C55.9385 13.6214 55.729 12.9929 55.729 12.2596C55.729 11.4216 55.9385 10.7931 56.4623 10.2693C56.8813 9.74553 57.5098 9.53603 58.3478 9.53603C59.0811 9.53603 59.7096 9.74553 60.2334 10.2693C60.6524 10.6883 60.8619 11.3168 60.8619 12.1549ZM59.6049 12.1549C59.6049 11.6311 59.5001 11.3168 59.2906 10.8978C59.0811 10.4788 58.6621 10.2693 58.2431 10.2693C57.8241 10.2693 57.4051 10.4788 57.1956 10.8978L56.8813 12.1549C56.8813 12.6786 56.986 12.9929 57.1956 13.4119C57.4051 13.8309 57.8241 14.0404 58.2431 14.0404C58.6621 14.0404 59.0811 13.8309 59.2906 13.4119C59.5001 13.0977 59.6049 12.6786 59.6049 12.1549ZM69.5565 9.64078L67.8804 14.7737H66.8329L66.2044 12.5739L65.7854 10.8978L65.3663 12.5739L64.6331 14.7737H63.5855L62.0142 9.64078H63.1665L63.795 12.1549L64.1093 13.8309L64.5283 12.1549L65.2616 9.64078H66.2044L66.9377 12.0501L67.3567 13.7262L67.6709 12.0501L68.2994 9.64078C68.2994 9.64078 69.5565 9.64078 69.5565 9.64078ZM75.5275 14.7737H74.3752V11.8406C74.3752 10.8978 74.0609 10.4788 73.3276 10.4788C73.0134 10.4788 72.6991 10.5836 72.4896 10.8978C72.2801 11.1073 72.1753 11.4216 72.1753 11.7359V14.7737H71.023V11.1073V9.64078H72.0706L72.1753 10.4788L72.8039 9.85029C73.1181 9.64078 73.4324 9.53603 73.8514 9.53603C74.3752 9.53603 74.7942 9.64078 75.1084 9.95504C75.5275 10.3741 75.737 10.8978 75.737 11.6311V14.7737H75.5275ZM78.7748 14.7737H77.6225V7.23145H78.7748V14.7737ZM85.5838 12.1549C85.5838 12.9929 85.3743 13.6214 84.8505 14.1452C84.3268 14.669 83.6982 14.9832 82.965 14.9832C82.2317 14.9832 81.6032 14.7737 81.1842 14.2499C80.7651 13.7262 80.4509 13.0977 80.4509 12.3644C80.4509 11.5263 80.6604 10.8978 81.1842 10.3741C81.6032 9.85029 82.3365 9.64078 83.0697 9.64078C83.803 9.64078 84.4315 9.85029 84.9553 10.3741C85.3743 10.6883 85.5838 11.3168 85.5838 12.1549ZM84.4315 12.1549C84.4315 11.6311 84.3268 11.3168 84.1173 10.8978C83.9078 10.4788 83.4887 10.2693 83.0697 10.2693C82.6507 10.2693 82.2317 10.4788 82.0222 10.8978C81.8127 11.2121 81.7079 11.6311 81.7079 12.1549C81.7079 12.6786 81.8127 12.9929 82.0222 13.4119C82.2317 13.8309 82.6507 14.0404 83.0697 14.0404C83.4887 14.0404 83.9078 13.8309 84.1173 13.4119C84.3268 13.0977 84.4315 12.6786 84.4315 12.1549ZM91.2405 14.7737H90.193L90.0882 14.1452C89.774 14.669 89.2502 14.8785 88.5169 14.8785C87.9932 14.8785 87.5741 14.7737 87.3646 14.4595C87.0504 14.1452 86.9456 13.8309 86.9456 13.4119C86.9456 12.7834 87.2599 12.2596 87.7836 11.9454C88.4122 11.5263 89.2502 11.4216 89.9835 11.4216V11.3168C89.9835 10.5836 89.6692 10.2693 88.9359 10.2693C88.4122 10.2693 87.9931 10.3741 87.5741 10.6883L87.3646 9.95504C87.8884 9.64078 88.5169 9.53603 89.1454 9.53603C90.5072 9.53603 91.2405 10.2693 91.2405 11.6311V13.5167V14.7737ZM89.9835 12.9929V12.1549C88.7264 12.1549 88.0979 12.4691 88.0979 13.2024L88.3074 13.8309L88.9359 14.0404L89.6692 13.8309L90.0882 13.2024C90.0882 13.2024 89.9835 12.9929 89.9835 12.9929ZM97.84 14.7737H96.7925L96.6877 13.9357C96.3735 14.5642 95.8497 14.8785 95.0116 14.8785C94.3831 14.8785 93.8594 14.669 93.4403 14.1452C93.0213 13.6214 92.8118 12.9929 92.8118 12.2596C92.8118 11.4216 93.0213 10.7931 93.4403 10.2693C93.8594 9.74553 94.3831 9.53603 95.0116 9.53603C95.7449 9.53603 96.1639 9.74553 96.4782 10.2693V7.23145H97.6305V13.4119C97.6305 13.4119 97.84 14.7737 97.84 14.7737ZM96.583 12.5739V11.7359V11.4216L96.1639 10.6883C95.9544 10.4788 95.7449 10.3741 95.4307 10.3741C95.0116 10.3741 94.6974 10.5836 94.3831 10.8978C94.1736 11.2121 93.9641 11.6311 93.9641 12.2596C93.9641 12.7834 94.0689 13.2024 94.2784 13.5167C94.4879 13.8309 94.9069 14.0404 95.3259 14.0404C95.7449 14.0404 96.0592 13.9357 96.2687 13.6214C96.4782 13.3072 96.583 12.9929 96.583 12.5739ZM107.792 12.1549C107.792 12.9929 107.582 13.6214 107.058 14.1452C106.535 14.669 105.906 14.9832 105.173 14.9832C104.439 14.9832 103.811 14.7737 103.392 14.2499C102.973 13.7262 102.659 13.0977 102.659 12.3644C102.659 11.5263 102.868 10.8978 103.392 10.3741C103.811 9.74553 104.439 9.53603 105.278 9.53603C106.011 9.53603 106.639 9.74553 107.163 10.2693C107.477 10.6883 107.792 11.3168 107.792 12.1549ZM106.535 12.1549C106.535 11.6311 106.43 11.3168 106.22 10.8978C106.011 10.4788 105.592 10.2693 105.173 10.2693C104.754 10.2693 104.335 10.4788 104.125 10.8978C103.916 11.2121 103.811 11.6311 103.811 12.1549C103.811 12.6786 103.916 12.9929 104.125 13.4119C104.335 13.8309 104.754 14.0404 105.173 14.0404C105.592 14.0404 106.011 13.8309 106.22 13.4119C106.43 13.0977 106.535 12.6786 106.535 12.1549ZM113.972 14.7737H112.82V11.8406C112.82 10.8978 112.506 10.4788 111.772 10.4788C111.458 10.4788 111.144 10.5836 110.934 10.8978C110.725 11.1073 110.62 11.4216 110.62 11.7359V14.7737H109.468V11.1073V9.64078H110.515V10.3741L111.144 9.74553C111.458 9.53603 111.772 9.43127 112.191 9.43127C112.715 9.43127 113.134 9.53603 113.448 9.85029C113.867 10.2693 114.077 10.7931 114.077 11.5263L113.972 14.7737ZM121.829 10.4788H120.572V12.9929C120.572 13.6214 120.781 13.9357 121.2 13.9357L121.724 13.8309V14.669L120.781 14.7737C120.362 14.7737 119.943 14.669 119.734 14.3547C119.524 14.0404 119.315 13.6214 119.315 12.9929V10.4788H118.581V9.64078H119.315V8.59324L120.467 8.27898V9.53603H121.724C121.724 9.53603 121.829 10.4788 121.829 10.4788ZM127.904 14.7737H126.752V11.8406C126.752 10.8978 126.438 10.4788 125.704 10.4788C125.181 10.4788 124.762 10.7931 124.552 11.3168L124.447 11.7359V14.8785H123.295V7.23145H124.447V10.3741C124.762 9.85029 125.285 9.53603 126.019 9.53603C126.543 9.53603 126.857 9.64078 127.171 9.95504C127.59 10.3741 127.8 10.8978 127.8 11.7359L127.904 14.7737ZM134.294 11.9454V12.4691H130.837C130.837 12.9929 131.047 13.4119 131.361 13.6214C131.675 13.8309 131.99 13.9357 132.513 13.9357L133.875 13.7262L134.085 14.5642C133.561 14.7737 133.037 14.8785 132.304 14.8785C131.466 14.8785 130.837 14.669 130.418 14.1452C129.999 13.6214 129.685 12.9929 129.685 12.2596C129.685 11.5263 129.895 10.7931 130.314 10.2693C130.733 9.74553 131.361 9.43127 132.094 9.43127C132.828 9.43127 133.456 9.74553 133.771 10.2693C134.085 10.7931 134.294 11.3168 134.294 11.9454ZM133.142 11.6311L132.932 10.7931C132.723 10.4788 132.409 10.2693 131.99 10.2693C131.571 10.2693 131.256 10.3741 131.047 10.6883C130.837 10.8978 130.733 11.2121 130.733 11.6311H133.142Z" fill="white"/>
</svg>
