<svg width="151" height="45" viewBox="0 0 151 45" fill="none" xmlns="http://www.w3.org/2000/svg">
<path d="M6.12458 43.3218H6.11565L6.10673 43.3222C3.43742 43.4175 1.12879 41.2183 1.02808 38.533V38.4365V5.92226C1.12844 3.13615 3.3319 1.02814 6.12458 1.02814H144.981C147.774 1.02814 149.977 3.13604 150.078 5.92203V38.4279C149.977 41.2021 147.68 43.3218 144.876 43.3218H6.12458Z" fill="black" stroke="white"/>
<path d="M54.2755 12.6714C54.2755 13.5161 54.0643 14.2553 53.5363 14.7833C52.9028 15.4168 52.1636 15.7336 51.2132 15.7336C50.2629 15.7336 49.5237 15.4168 48.8902 14.7833C48.2566 14.1497 47.9398 13.4105 47.9398 12.4602C47.9398 11.5098 48.2566 10.7707 48.8902 10.1371C49.5237 9.50355 50.2629 9.18677 51.2132 9.18677C51.6356 9.18677 52.058 9.29237 52.4804 9.50355C52.9028 9.71474 53.2195 9.92593 53.4307 10.2427L52.9028 10.7707C52.4804 10.2427 51.9524 10.0315 51.2132 10.0315C50.5797 10.0315 49.9461 10.2427 49.5237 10.7707C48.9958 11.1931 48.7846 11.8266 48.7846 12.5658C48.7846 13.305 48.9958 13.9385 49.5237 14.3609C50.0517 14.7833 50.5797 15.1001 51.2132 15.1001C51.9524 15.1001 52.4804 14.8889 53.0083 14.3609C53.3251 14.0441 53.5363 13.6217 53.5363 13.0938H51.2132V12.249H54.2755V12.6714V12.6714ZM59.0272 10.0315H56.1762V12.0378H58.816V12.777H56.1762V14.7833H59.0272V15.628H55.437V9.29237H59.1328L59.0272 10.0315ZM62.4062 15.5224H61.5615V10.0315H59.7664V9.29237H64.0958V10.0315H62.3007V15.5224H62.4062ZM67.2636 15.5224V9.29237H68.1083V15.5224H67.2636ZM71.593 15.5224H70.7482V10.0315H68.9531V9.29237H73.1769V10.0315H71.3818L71.593 15.5224ZM81.5188 14.6777C80.8853 15.3112 80.1461 15.628 79.1958 15.628C78.2454 15.628 77.5063 15.3112 76.8727 14.6777C76.2391 14.0441 75.9223 13.305 75.9223 12.3546C75.9223 11.4043 76.2391 10.6651 76.8727 10.0315C77.5063 9.39796 78.2454 9.08118 79.1958 9.08118C80.1461 9.08118 80.8853 9.39796 81.5188 10.0315C82.1524 10.6651 82.4692 11.4043 82.4692 12.3546C82.4692 13.305 82.1524 14.1497 81.5188 14.6777ZM77.5063 14.2553C77.9286 14.6777 78.5622 14.9945 79.1958 14.9945C79.8293 14.9945 80.4629 14.7833 80.8853 14.2553C81.3076 13.8329 81.6244 13.1994 81.6244 12.4602C81.6244 11.721 81.4132 11.0875 80.8853 10.6651C80.4629 10.2427 79.8293 9.92593 79.1958 9.92593C78.5622 9.92593 77.9286 10.1371 77.5063 10.6651C77.0839 11.0875 76.7671 11.721 76.7671 12.4602C76.7671 13.1994 76.9783 13.8329 77.5063 14.2553ZM83.5251 15.5224V9.29237H84.4755L87.5377 14.1497V9.29237H88.3825V15.5224H87.5377L84.2643 10.4539V15.5224H83.5251V15.5224Z" fill="white"/>
<path d="M54.3811 12.6719C54.3811 13.0942 54.2755 13.5166 54.1699 13.8334C54.0643 14.1502 53.8531 14.5726 53.5363 14.7838C53.2195 15.1005 52.9028 15.3117 52.4804 15.5229C52.058 15.7341 51.6356 15.7341 51.2132 15.7341C50.7909 15.7341 50.2629 15.6285 49.9461 15.5229C49.5237 15.3117 49.2069 15.1005 48.8902 14.7838C48.5734 14.467 48.3622 14.1502 48.151 13.7278C47.9398 13.3054 47.9398 12.8831 47.9398 12.4607C47.9398 12.0383 48.0454 11.5103 48.151 11.1935C48.2566 10.8768 48.5734 10.4544 48.8902 10.1376C49.2069 9.82082 49.5237 9.60963 49.9461 9.39844C50.3685 9.18726 50.7909 9.18726 51.2132 9.18726C51.4244 9.18726 51.6356 9.18726 51.8468 9.29285C52.058 9.29285 52.2692 9.39844 52.4804 9.50404C52.6916 9.60963 52.9028 9.71523 53.0083 9.82082C53.2195 9.92642 53.3251 10.032 53.4307 10.2432V10.3488L52.7972 10.9824V10.8768C52.586 10.6656 52.3748 10.4544 52.1636 10.3488C51.9524 10.2432 51.6356 10.1376 51.2132 10.1376C50.8965 10.1376 50.5797 10.2432 50.2629 10.3488C50.0517 10.4544 49.7349 10.6656 49.6293 10.8768C49.4181 11.088 49.207 11.2991 49.1014 11.6159C48.9958 11.9327 48.8902 12.2495 48.8902 12.5663C48.8902 12.8831 48.8902 13.3054 49.1014 13.5166C49.207 13.8334 49.4181 14.0446 49.6293 14.2558C49.8405 14.467 50.1573 14.6782 50.3685 14.7838C50.5797 14.8894 50.8965 14.9949 51.2132 14.9949C51.53 14.9949 51.8468 14.8894 52.1636 14.7838C52.4804 14.6782 52.6916 14.467 52.9028 14.2558C53.0083 14.1502 53.2195 13.939 53.2195 13.7278C53.3251 13.5166 53.3251 13.411 53.3251 13.1998H51.0021V12.1439H54.2755V12.6719H54.3811ZM53.9587 13.7278C54.0643 13.411 54.1699 12.9887 54.1699 12.5663V12.2495H51.3188V12.8831H53.6419V12.9887C53.6419 13.1998 53.6419 13.5166 53.5363 13.7278C53.4307 13.939 53.3251 14.1502 53.1139 14.3614C52.7972 14.6782 52.586 14.7838 52.2692 14.9949C51.9524 15.1005 51.6356 15.2061 51.3188 15.2061C51.0021 15.2061 50.6853 15.1005 50.3685 14.9949C50.0517 14.8894 49.8405 14.6782 49.5237 14.467C49.3125 14.2558 49.1014 14.0446 48.9958 13.7278C48.8902 13.411 48.7846 13.0942 48.7846 12.6719C48.7846 12.2495 48.8902 11.9327 48.9958 11.6159C49.1014 11.2991 49.3125 11.088 49.5237 10.8768C49.7349 10.6656 49.9461 10.4544 50.2629 10.3488C50.5797 10.2432 50.8965 10.1376 51.2132 10.1376C51.6356 10.1376 51.9524 10.2432 52.1636 10.3488C52.3748 10.4544 52.6916 10.6656 52.7972 10.8768L53.2195 10.4544C53.1139 10.3488 53.0083 10.2432 52.9028 10.1376C52.7972 10.032 52.586 9.92642 52.3748 9.82082C52.1636 9.71523 51.9524 9.60963 51.7412 9.60963C51.53 9.50404 51.3188 9.50404 51.1077 9.50404C50.6853 9.50404 50.2629 9.60963 49.8405 9.71523C49.5237 9.82082 49.1014 10.1376 48.8902 10.3488C48.5734 10.6656 48.3622 10.9824 48.2566 11.2991C48.151 11.6159 48.0454 12.0383 48.0454 12.5663C48.0454 12.9887 48.151 13.411 48.2566 13.8334C48.3622 14.1502 48.679 14.5726 48.8902 14.7838C49.2069 15.1005 49.5237 15.3117 49.8405 15.4173C50.1573 15.5229 50.5797 15.6285 51.1077 15.6285C51.53 15.6285 51.9524 15.5229 52.3748 15.4173C52.6916 15.3117 53.1139 14.9949 53.3251 14.7838C53.6419 14.3614 53.8531 14.1502 53.9587 13.7278ZM59.0272 10.1376H56.2818V11.9327H58.9216V12.8831H56.2818V14.6782H59.1328V15.7341H55.3314C55.3314 13.6222 55.3314 11.4047 55.3314 9.29285H59.1328L59.0272 10.1376ZM56.1762 9.92642H58.9216V9.39844H55.437V15.4173H58.816V14.7838H55.965V12.6719H58.6049V12.1439H55.965L56.1762 9.92642ZM62.4062 15.6285H61.4559V10.1376H59.6608V9.18726H64.2014V10.1376H62.4062V15.6285ZM61.6671 15.4173H62.3007V9.92642H64.0958V9.39844H59.9776V9.92642H61.7727V15.4173H61.6671ZM67.158 15.5229V9.18726H68.2139C68.2139 11.2991 68.2139 13.5166 68.2139 15.6285L67.158 15.5229ZM67.3692 9.39844V15.4173H68.0028V9.39844H67.3692ZM71.593 15.6285H70.6426V10.1376H68.8475V9.18726H73.2825V10.1376H71.4874V15.4173V15.6285H71.593ZM70.8538 15.4173H71.3818V9.92642H73.1769V9.39844H69.1643V9.92642H70.9594V15.4173H70.8538ZM81.5188 14.7838C81.202 15.1005 80.8853 15.3117 80.4629 15.5229C80.0405 15.7341 79.6181 15.7341 79.1958 15.7341C78.7734 15.7341 78.2454 15.6285 77.9286 15.5229C77.5063 15.3117 77.1895 15.1005 76.8727 14.7838C76.5559 14.467 76.3447 14.1502 76.1335 13.7278C75.9223 13.3054 75.9223 12.8831 75.9223 12.4607C75.9223 12.0383 76.0279 11.5103 76.1335 11.1935C76.3447 10.7712 76.5559 10.4544 76.8727 10.1376C77.1895 9.82082 77.5063 9.60963 77.9286 9.39844C78.351 9.18726 78.7734 9.18726 79.1958 9.18726C79.6181 9.18726 80.1461 9.29285 80.4629 9.39844C80.8853 9.60963 81.202 9.82082 81.5188 10.1376C81.8356 10.4544 82.0468 10.7712 82.258 11.1935C82.4692 11.6159 82.4692 12.0383 82.4692 12.4607C82.4692 12.8831 82.3636 13.411 82.258 13.7278C82.1524 14.1502 81.8356 14.467 81.5188 14.7838ZM80.4629 15.3117C80.7797 15.2061 81.2021 14.8894 81.4132 14.6782C81.73 14.3614 81.9412 14.0446 82.0468 13.7278C82.1524 13.411 82.258 12.9887 82.258 12.4607C82.258 11.9327 82.1524 11.6159 82.0468 11.1935C81.9412 10.8768 81.6244 10.4544 81.4132 10.2432C81.0965 9.92642 80.7797 9.71523 80.4629 9.60963C80.1461 9.50404 79.7237 9.39844 79.1958 9.39844C78.7734 9.39844 78.351 9.50404 77.9286 9.60963C77.6118 9.71523 77.1895 10.032 76.9783 10.2432C76.6615 10.56 76.4503 10.8768 76.3447 11.1935C76.1335 11.6159 76.0279 11.9327 76.0279 12.4607C76.0279 12.8831 76.1335 13.3054 76.2391 13.7278C76.3447 14.0446 76.6615 14.467 76.8727 14.6782C77.1895 14.9949 77.5062 15.2061 77.823 15.3117C78.1398 15.4173 78.5622 15.5229 79.0902 15.5229C79.6181 15.5229 80.0405 15.5229 80.4629 15.3117ZM77.6118 14.1502C77.823 14.3614 78.0342 14.5726 78.351 14.6782C78.6678 14.7838 78.879 14.7838 79.1958 14.7838C79.5125 14.7838 79.8293 14.6782 80.1461 14.5726C80.3573 14.467 80.6741 14.2558 80.7797 14.0446C80.9909 13.8334 81.2021 13.6222 81.3076 13.3054C81.4132 12.9887 81.5188 12.6719 81.5188 12.3551C81.5188 12.0383 81.4132 11.6159 81.3076 11.4047C81.2021 11.088 80.9909 10.8768 80.7797 10.6656C80.5685 10.4544 80.3573 10.2432 80.0405 10.1376C79.8293 10.032 79.5125 9.92642 79.1958 9.92642C78.879 9.92642 78.5622 10.032 78.2454 10.1376C78.0342 10.2432 77.7174 10.4544 77.6118 10.6656C77.4007 10.8768 77.1895 11.1935 77.0839 11.4047C76.9783 11.7215 76.8727 11.9327 76.8727 12.3551C76.8727 12.6719 76.9783 13.0942 77.0839 13.3054C77.1895 13.7278 77.4007 13.939 77.6118 14.1502ZM78.2454 14.8894C77.9286 14.7838 77.6118 14.5726 77.4007 14.3614C77.1895 14.1502 76.9783 13.8334 76.8727 13.6222C76.7671 13.3054 76.6615 12.9887 76.6615 12.5663C76.6615 12.2495 76.7671 11.8271 76.8727 11.6159C76.9783 11.2991 77.1895 10.9824 77.4007 10.7712C77.6118 10.56 77.823 10.3488 78.1398 10.2432C78.4566 10.1376 78.7734 10.032 79.0902 10.032C79.4069 10.032 79.7237 10.1376 80.0405 10.2432C80.3573 10.3488 80.6741 10.56 80.8853 10.7712C81.0965 10.9824 81.3076 11.1935 81.4132 11.5103C81.5188 11.8271 81.6244 12.1439 81.6244 12.5663C81.6244 12.8831 81.5188 13.3054 81.4132 13.5166C81.3076 13.8334 81.0965 14.1502 80.8853 14.3614C80.6741 14.5726 80.4629 14.7838 80.1461 14.8894C79.8293 14.9949 79.5125 15.1005 79.1958 15.1005C78.879 14.9949 78.5622 14.9949 78.2454 14.8894ZM83.4195 15.5229V9.18726H84.4755L87.3265 13.8334V9.18726H88.3825C88.3825 11.2991 88.3825 13.5166 88.3825 15.6285H87.4321L84.3699 10.7712V15.6285L83.4195 15.5229ZM83.6307 9.39844V15.4173H84.1587V10.1376L87.5377 15.5229H88.1713V9.39844H87.6433V14.5726L84.4755 9.39844H83.6307Z" fill="white"/>
<path d="M75.7111 24.7095C73.1769 24.7095 71.2762 26.6102 71.2762 29.1445C71.2762 31.6787 73.2825 33.5794 75.7111 33.5794C78.2454 33.5794 80.1461 31.6787 80.1461 29.1445C80.2517 26.5046 78.2454 24.7095 75.7111 24.7095ZM75.7111 31.7843C74.3384 31.7843 73.1769 30.6228 73.1769 29.0389C73.1769 27.455 74.3384 26.2934 75.7111 26.2934C77.0839 26.2934 78.2454 27.3494 78.2454 29.0389C78.2454 30.6228 77.0839 31.7843 75.7111 31.7843ZM66.1021 24.7095C63.5678 24.7095 61.6671 26.6102 61.6671 29.1445C61.6671 31.6787 63.6734 33.5794 66.1021 33.5794C68.6363 33.5794 70.537 31.6787 70.537 29.1445C70.537 26.5046 68.5307 24.7095 66.1021 24.7095ZM66.1021 31.7843C64.7293 31.7843 63.5678 30.6228 63.5678 29.0389C63.5678 27.455 64.7293 26.2934 66.1021 26.2934C67.4748 26.2934 68.6363 27.3494 68.6363 29.0389C68.5307 30.6228 67.4748 31.7843 66.1021 31.7843ZM54.4867 26.0822V27.9829H58.9216C58.816 29.0389 58.3937 29.8836 57.8657 30.4116C57.2321 31.0452 56.1762 31.7843 54.4867 31.7843C51.7412 31.6787 49.6293 29.4613 49.6293 26.7158C49.6293 23.9704 51.8468 21.7529 54.4867 21.7529C55.965 21.7529 57.1265 22.3864 57.9713 23.1256L59.344 21.7529C58.1825 20.6969 56.7042 19.8522 54.6979 19.8522C51.0021 19.8522 47.7286 23.02 47.7286 26.7158C47.7286 30.4116 50.8965 33.5794 54.6979 33.5794C56.8098 33.5794 58.1825 32.9459 59.4496 31.5731C60.7167 30.306 61.1391 28.5109 61.1391 27.2438C61.1391 26.8214 61.1391 26.399 61.0335 26.0822H54.4867V26.0822ZM101.793 27.5606C101.371 26.5046 100.315 24.7095 97.9916 24.7095C95.6685 24.7095 93.8734 26.5046 93.8734 29.1445C93.8734 31.6787 95.7741 33.5794 98.2028 33.5794C100.209 33.5794 101.476 32.3123 101.793 31.5731L100.315 30.5172C99.7867 31.2564 99.1531 31.7843 98.0972 31.7843C97.0412 31.7843 96.4077 31.362 95.8797 30.4116L101.793 27.8773V27.5606ZM95.7741 29.0389C95.7741 27.3494 97.1468 26.399 98.0972 26.399C98.8363 26.399 99.5755 26.8214 99.7867 27.3494L95.7741 29.0389ZM90.8112 33.2627H92.8174V20.2746H90.8112V33.2627ZM87.7489 25.6599C87.2209 25.1319 86.3762 24.6039 85.3202 24.6039C83.1028 24.6039 81.0965 26.6102 81.0965 29.0389C81.0965 31.4676 83.1028 33.3683 85.3202 33.3683C86.3762 33.3683 87.2209 32.8403 87.6433 32.3123H87.7489V32.9459C87.7489 34.6354 86.7986 35.5857 85.3202 35.5857C84.1587 35.5857 83.3139 34.741 83.1028 34.0018L81.5188 34.8466C82.0468 36.0081 83.314 37.4864 85.4258 37.4864C87.7489 37.4864 89.544 36.1137 89.544 32.9459V25.0263H87.6433V25.6599H87.7489ZM85.4258 31.7843C84.0531 31.7843 82.8916 30.6228 82.8916 29.0389C82.8916 27.455 84.0531 26.2934 85.4258 26.2934C86.7986 26.2934 87.8545 27.455 87.8545 29.0389C87.8545 30.6228 86.7986 31.7843 85.4258 31.7843ZM110.874 20.2746H106.228V33.2627H108.234V28.4053H110.98C113.197 28.4053 115.203 26.8214 115.203 24.3927C115.203 21.9641 112.986 20.2746 110.874 20.2746ZM110.98 26.5046H108.129V22.0697H110.98C112.458 22.0697 113.303 23.3368 113.303 24.2871C113.092 25.3431 112.247 26.5046 110.98 26.5046ZM122.912 24.6039C121.434 24.6039 119.955 25.2375 119.427 26.6102L121.222 27.3494C121.645 26.6102 122.278 26.399 123.017 26.399C124.073 26.399 125.024 27.0326 125.129 28.0885V28.1941C124.813 27.9829 123.968 27.6662 123.123 27.6662C121.222 27.6662 119.427 28.7221 119.427 30.6228C119.427 32.4179 121.011 33.5794 122.701 33.5794C124.073 33.5794 124.707 32.9459 125.235 32.3123H125.341V33.3683H127.241V28.4053C126.819 25.9766 125.024 24.6039 122.912 24.6039ZM122.701 31.7843C122.067 31.7843 121.117 31.4676 121.117 30.6228C121.117 29.5669 122.278 29.2501 123.229 29.2501C124.073 29.2501 124.496 29.4613 125.024 29.6725C124.813 30.9396 123.757 31.7843 122.701 31.7843ZM133.577 24.9207L131.359 30.5172H131.254L128.931 24.9207H126.819L130.198 32.8403L128.192 37.1697H130.198L135.478 24.9207H133.577ZM116.154 33.2627H118.16V20.2746H116.154V33.2627Z" fill="white"/>
<path d="M15.7335 9.82074C15.4168 10.1375 15.3112 10.6655 15.3112 11.2991V34.3186C15.3112 34.9522 15.5223 35.4802 15.8391 35.797L15.9447 35.9026L28.8272 23.02V22.8089L15.7335 9.82074Z" fill="white"/>
<path d="M33.6846 27.3492L29.4608 23.1254V22.8086L33.6846 18.5848L33.7902 18.6904L38.8587 21.6471C40.337 22.4918 40.337 23.8646 38.8587 24.7093L33.6846 27.3492Z" fill="white"/>
<path d="M33.4734 27.5605L29.0384 23.2311L16.0503 36.2193C16.5783 36.7472 17.3174 36.7472 18.2678 36.3248L33.4734 27.5605Z" fill="white"/>
<path d="M33.4734 18.2684L18.2678 9.60963C17.3174 9.08166 16.5783 9.18725 16.0503 9.71522L29.0384 22.5977L33.4734 18.2684Z" fill="white"/>
<path d="M33.051 27.1382L17.951 35.5858C17.1062 36.1138 16.3671 36.0082 15.8391 35.5858L15.7335 35.6914L15.8391 35.797C16.3671 36.2194 17.1062 36.325 17.951 35.797L33.051 27.1382Z" fill="#FEFEFE" fill-opacity="0.2"/>
<path d="M15.7335 35.5856C15.4168 35.2688 15.3112 34.7408 15.3112 34.1073V34.2129C15.3112 34.8464 15.5223 35.3744 15.7335 35.5856ZM38.2251 24.1814L33.051 27.138L33.1566 27.2436L38.2251 24.1814C38.9643 23.8646 39.2811 23.3366 39.2811 22.8087C39.2811 23.3366 38.8587 23.759 38.2251 24.1814Z" fill="#FEFEFE" fill-opacity="0.2"/>
</svg>
